<svg width="28" height="37" viewBox="0 0 28 37" fill="none" xmlns="http://www.w3.org/2000/svg">
<path d="M13.6316 23.3684C16.8642 23.3684 19.4542 20.7589 19.4542 17.5263L19.4737 5.8421C19.4737 2.60947 16.8642 0 13.6316 0C10.3989 0 7.78947 2.60947 7.78947 5.8421V17.5263C7.78947 20.7589 10.3989 23.3684 13.6316 23.3684ZM23.9526 17.5263C23.9526 23.3684 19.0063 27.4579 13.6316 27.4579C8.25684 27.4579 3.31053 23.3684 3.31053 17.5263H0C0 24.1668 5.29684 29.6584 11.6842 30.6126V37H15.5789V30.6126C21.9663 29.6779 27.2632 24.1863 27.2632 17.5263H23.9526Z" fill="white"/>
</svg>
