<svg width="30" height="37" viewBox="0 0 30 37" fill="none" xmlns="http://www.w3.org/2000/svg">
<path d="M15 10.0909C16.85 10.0909 18.3333 8.57727 18.3333 6.72727C18.3333 6.08818 18.1667 5.49955 17.85 4.995L15 0L12.15 4.995C11.8333 5.49955 11.6667 6.08818 11.6667 6.72727C11.6667 8.57727 13.1667 10.0909 15 10.0909ZM22.6667 26.8923L20.8833 25.0927L19.0833 26.8923C16.9167 29.0786 13.1167 29.0955 10.9333 26.8923L9.15 25.0927L7.33333 26.8923C6.25 27.9855 4.8 28.5909 3.26667 28.5909C2.05 28.5909 0.933333 28.2041 0 27.565V35.3182C0 36.2432 0.75 37 1.66667 37H28.3333C29.25 37 30 36.2432 30 35.3182V27.565C29.0667 28.2041 27.95 28.5909 26.7333 28.5909C25.2 28.5909 23.75 27.9855 22.6667 26.8923ZM25 15.1364H16.6667V11.7727H13.3333V15.1364H5C2.23333 15.1364 0 17.39 0 20.1818V22.7718C0 24.5882 1.46667 26.0682 3.26667 26.0682C4.13333 26.0682 4.96667 25.7318 5.56667 25.1095L9.13333 21.5273L12.6833 25.1095C13.9167 26.3541 16.0667 26.3541 17.3 25.1095L20.8667 21.5273L24.4167 25.1095C25.0333 25.7318 25.85 26.0682 26.7167 26.0682C28.5167 26.0682 29.9833 24.5882 29.9833 22.7718V20.1818C30 17.39 27.7667 15.1364 25 15.1364Z" fill="white"/>
</svg>
