<svg width="73" height="72" viewBox="0 0 73 72" fill="none" xmlns="http://www.w3.org/2000/svg">
<path fill-rule="evenodd" clip-rule="evenodd" d="M72.4619 35.5849C72.4619 55.2378 56.4585 71.1697 36.7173 71.1697C16.9761 71.1697 0.972656 55.2378 0.972656 35.5849C0.972656 15.9319 16.9761 0 36.7173 0C56.4585 0 72.4619 15.9319 72.4619 35.5849ZM52.5184 24.5213C53.852 24.3 55.226 23.958 56.4586 23.3948V23.3546C56.5573 23.3054 56.5958 23.2788 56.6107 23.2884C56.6202 23.2946 56.6202 23.3154 56.6202 23.3546V23.3948C56.6202 23.4954 56.6202 23.7368 56.4182 24.0184C55.5089 25.2253 54.5188 26.3317 53.3064 27.2369C53.2673 27.271 53.2199 27.3051 53.1705 27.3406C53.0158 27.4518 52.8417 27.577 52.8417 27.7599C52.8417 34.1769 51.1848 40.5737 46.497 45.2204C40.5361 51.1345 31.5646 52.7437 23.6034 50.5511C22.0677 50.1287 20.5927 49.5252 19.1783 48.781C18.7135 48.5396 18.2488 48.278 17.8042 47.9763C17.7939 47.966 17.7836 47.956 17.7735 47.9461C17.6847 47.8595 17.6125 47.7891 17.7032 47.7349C17.8043 47.6947 17.8649 47.6746 18.2286 47.7349C20.4512 47.9562 22.7548 47.6142 24.8562 46.8901C24.934 46.8629 25.0179 46.8339 25.1071 46.8031C26.3382 46.3778 28.5613 45.6098 29.2207 44.5969C29.2317 44.575 29.2486 44.5651 29.2618 44.5573C29.2729 44.5507 29.2813 44.5457 29.2813 44.5365C29.0941 44.4833 28.8981 44.4653 28.7049 44.4475C28.6062 44.4384 28.5082 44.4294 28.4125 44.4158C26.2504 43.7922 23.3609 42.706 22.0273 39.0851C21.9465 38.8638 22.0273 38.7633 22.2496 38.8035C24.0277 38.9443 24.6541 38.8437 25.2805 38.7029C24.937 38.6426 24.5733 38.5219 24.25 38.3811C21.5222 37.3552 19.542 34.6999 19.1783 31.8434C19.1176 31.5015 19.1176 31.2199 19.1176 30.9181V30.9181C19.1379 30.6968 19.2389 30.6365 19.4207 30.7572C20.815 31.4813 22.391 31.6423 22.5123 31.6222C22.1688 31.3607 21.8455 31.059 21.5222 30.7572L21.5222 30.7572C19.1581 28.5444 18.2286 23.9983 20.128 21.1821C20.2896 20.9608 20.3906 20.9608 20.5725 21.1821C24.8966 26.0903 30.2108 28.3835 36.6364 29.329C36.798 29.3692 36.8182 29.329 36.798 29.1479C36.6364 28.0214 36.596 26.9151 36.8788 25.8087C37.1617 24.6621 37.7275 23.5758 38.4751 22.6505C39.2025 21.7654 40.1118 21.0211 41.1423 20.4981C42.1526 19.9751 43.2842 19.6533 44.4359 19.5728C45.6281 19.5125 46.8202 19.6935 47.9114 20.136C48.7398 20.478 49.4875 20.9407 50.1745 21.524C50.307 21.6371 50.4217 21.7678 50.552 21.9162L50.5786 21.9465C50.6594 22.0269 50.7604 22.0672 50.9019 22.0269C52.5386 21.6045 54.0742 21.0413 55.5695 20.2366C55.589 20.2366 55.6085 20.2325 55.6287 20.2281C55.6712 20.2191 55.7167 20.2093 55.7716 20.2366C55.8322 20.2769 55.812 20.3774 55.7716 20.4378C55.5089 21.3028 55.0239 22.1074 54.4582 22.8114C54.4444 22.828 54.43 22.8454 54.415 22.8635C54.0082 23.3547 53.1224 24.4243 52.5184 24.5213Z" fill="white"/>
</svg>
