<svg width="40" height="40" viewBox="0 0 40 40" fill="none" xmlns="http://www.w3.org/2000/svg">
<path fill-rule="evenodd" clip-rule="evenodd" d="M39.9512 20C39.9512 31.0457 31.0192 40 20.001 40C8.98279 40 0.0507812 31.0457 0.0507812 20C0.0507812 8.95431 8.98279 0 20.001 0C31.0192 0 39.9512 8.95431 39.9512 20ZM28.8183 13.7827C29.5626 13.6583 30.3295 13.4661 31.0174 13.1496V13.1269C31.0725 13.0993 31.0939 13.0844 31.1023 13.0898C31.1076 13.0932 31.1076 13.1049 31.1076 13.1269V13.1496C31.1076 13.2061 31.1076 13.3418 30.9948 13.5C30.4874 14.1784 29.9347 14.8002 29.2581 15.309C29.2363 15.3281 29.2098 15.3473 29.1822 15.3672C29.0959 15.4297 28.9987 15.5001 28.9987 15.6029C28.9987 19.2095 28.0739 22.8047 25.4575 25.4164C22.1306 28.7403 17.1233 29.6447 12.6799 28.4124C11.8228 28.175 10.9995 27.8358 10.2101 27.4175C9.95071 27.2818 9.69132 27.1349 9.44321 26.9653C9.43746 26.9595 9.4317 26.9538 9.42606 26.9483C9.37649 26.8996 9.3362 26.8601 9.38683 26.8296C9.44322 26.807 9.47705 26.7957 9.68004 26.8296C10.9206 26.954 12.2062 26.7618 13.3791 26.3548C13.4225 26.3395 13.4694 26.3232 13.5192 26.3059C14.2063 26.0668 15.447 25.6352 15.8151 25.0659C15.8212 25.0536 15.8307 25.048 15.838 25.0436C15.8442 25.04 15.8489 25.0372 15.8489 25.032C15.7445 25.0021 15.635 24.9919 15.5272 24.982C15.4721 24.9769 15.4174 24.9718 15.364 24.9642C14.1573 24.6137 12.5446 24.0031 11.8003 21.9681C11.7551 21.8437 11.8003 21.7872 11.9243 21.8098C12.9167 21.889 13.2663 21.8324 13.616 21.7533C13.4242 21.7194 13.2212 21.6515 13.0408 21.5724C11.5183 20.9958 10.4131 19.5034 10.2101 17.898C10.1763 17.7058 10.1763 17.5475 10.1763 17.378V17.3779C10.1875 17.2536 10.2439 17.2197 10.3454 17.2875C11.1236 17.6945 12.0032 17.7849 12.0709 17.7736C11.8792 17.6267 11.6988 17.4571 11.5183 17.2875L11.5183 17.2875C10.1988 16.0438 9.68005 13.4887 10.7401 11.9059C10.8304 11.7816 10.8868 11.7816 10.9883 11.9059C13.4017 14.6645 16.3677 15.9534 19.954 16.4848C20.0442 16.5074 20.0555 16.4848 20.0442 16.383C19.954 15.7499 19.9315 15.1281 20.0893 14.5063C20.2472 13.8618 20.563 13.2513 20.9803 12.7312C21.3863 12.2338 21.8938 11.8155 22.4689 11.5215C23.0328 11.2276 23.6644 11.0467 24.3072 11.0015C24.9726 10.9675 25.638 11.0693 26.2469 11.318C26.7093 11.5102 27.1266 11.7703 27.51 12.0981C27.584 12.1617 27.6481 12.2351 27.7208 12.3185L27.7356 12.3355C27.7807 12.3808 27.8371 12.4034 27.916 12.3808C28.8295 12.1433 29.6866 11.8268 30.5212 11.3745C30.5321 11.3745 30.543 11.3722 30.5542 11.3698C30.578 11.3647 30.6034 11.3592 30.634 11.3745C30.6678 11.3972 30.6565 11.4537 30.634 11.4876C30.4874 11.9738 30.2167 12.426 29.9009 12.8217C29.8933 12.831 29.8852 12.8408 29.8768 12.851C29.6498 13.127 29.1554 13.7282 28.8183 13.7827Z" fill="white"/>
</svg>
