<svg width="72" height="72" viewBox="0 0 72 72" fill="none" xmlns="http://www.w3.org/2000/svg">
<path fill-rule="evenodd" clip-rule="evenodd" d="M72.001 35.5858C72.001 55.2388 55.9976 71.1707 36.2563 71.1707C16.5151 71.1707 0.511719 55.2388 0.511719 35.5858C0.511719 15.9329 16.5151 0.000976562 36.2563 0.000976562C55.9976 0.000976562 72.001 15.9329 72.001 35.5858ZM46.804 21.9474C51.5525 21.9474 55.3916 25.7694 55.3916 30.4966V40.6752C55.3916 45.4024 51.5525 49.2244 46.804 49.2244H24.8602C20.1117 49.2244 16.2726 45.4024 16.2726 40.6752V30.4966C16.2726 25.7694 20.1117 21.9474 24.8602 21.9474H46.804ZM32.6395 41.1982L42.4799 36.3503C42.884 36.129 42.4799 35.5658 42.0758 35.3445L32.6597 30.2351C32.2556 30.0138 30.9422 30.2954 30.9422 30.738V40.6953C30.9422 41.1177 32.2556 41.3993 32.6395 41.1982Z" fill="white"/>
</svg>
